<svg width="561" height="202" viewBox="0 0 561 202" fill="none" xmlns="http://www.w3.org/2000/svg">
<path d="M53.73 100.24C57.33 101.38 60.15 103.3 62.19 106C64.23 108.64 65.25 111.91 65.25 115.81C65.25 121.33 63.09 125.59 58.77 128.59C54.51 131.53 48.27 133 40.05 133H7.47V70H38.25C45.93 70 51.81 71.47 55.89 74.41C60.03 77.35 62.1 81.34 62.1 86.38C62.1 89.44 61.35 92.17 59.85 94.57C58.41 96.97 56.37 98.86 53.73 100.24ZM21.96 80.98V95.83H36.45C40.05 95.83 42.78 95.2 44.64 93.94C46.5 92.68 47.43 90.82 47.43 88.36C47.43 85.9 46.5 84.07 44.64 82.87C42.78 81.61 40.05 80.98 36.45 80.98H21.96ZM38.97 122.02C42.81 122.02 45.69 121.39 47.61 120.13C49.59 118.87 50.58 116.92 50.58 114.28C50.58 109.06 46.71 106.45 38.97 106.45H21.96V122.02H38.97ZM68.0984 66.22H82.1384V133H68.0984V66.22ZM136.749 84.58V133H123.429V127.24C121.569 129.34 119.349 130.96 116.769 132.1C114.189 133.18 111.399 133.72 108.399 133.72C102.039 133.72 96.9987 131.89 93.2787 128.23C89.5587 124.57 87.6987 119.14 87.6987 111.94V84.58H101.739V109.87C101.739 117.67 105.009 121.57 111.549 121.57C114.909 121.57 117.609 120.49 119.649 118.33C121.689 116.11 122.709 112.84 122.709 108.52V84.58H136.749ZM189.986 108.97C189.986 109.15 189.896 110.41 189.716 112.75H153.086C153.746 115.75 155.306 118.12 157.766 119.86C160.226 121.6 163.286 122.47 166.946 122.47C169.466 122.47 171.686 122.11 173.606 121.39C175.586 120.61 177.416 119.41 179.096 117.79L186.566 125.89C182.006 131.11 175.346 133.72 166.586 133.72C161.126 133.72 156.296 132.67 152.096 130.57C147.896 128.41 144.656 125.44 142.376 121.66C140.096 117.88 138.956 113.59 138.956 108.79C138.956 104.05 140.066 99.79 142.286 96.01C144.566 92.17 147.656 89.2 151.556 87.1C155.516 84.94 159.926 83.86 164.786 83.86C169.526 83.86 173.816 84.88 177.656 86.92C181.496 88.96 184.496 91.9 186.656 95.74C188.876 99.52 189.986 103.93 189.986 108.97ZM164.876 94.48C161.696 94.48 159.026 95.38 156.866 97.18C154.706 98.98 153.386 101.44 152.906 104.56H176.756C176.276 101.5 174.956 99.07 172.796 97.27C170.636 95.41 167.996 94.48 164.876 94.48ZM220.393 70C225.973 70 230.803 70.93 234.883 72.79C239.023 74.65 242.203 77.29 244.423 80.71C246.643 84.13 247.753 88.18 247.753 92.86C247.753 97.48 246.643 101.53 244.423 105.01C242.203 108.43 239.023 111.07 234.883 112.93C230.803 114.73 225.973 115.63 220.393 115.63H207.703V133H193.123V70H220.393ZM219.583 103.75C223.963 103.75 227.293 102.82 229.573 100.96C231.853 99.04 232.993 96.34 232.993 92.86C232.993 89.32 231.853 86.62 229.573 84.76C227.293 82.84 223.963 81.88 219.583 81.88H207.703V103.75H219.583ZM263.382 90.97C265.062 88.63 267.312 86.86 270.132 85.66C273.012 84.46 276.312 83.86 280.032 83.86V96.82C278.472 96.7 277.422 96.64 276.882 96.64C272.862 96.64 269.712 97.78 267.432 100.06C265.152 102.28 264.012 105.64 264.012 110.14V133H249.972V84.58H263.382V90.97ZM281.18 84.58H295.22V133H281.18V84.58ZM288.2 77.83C285.62 77.83 283.52 77.08 281.9 75.58C280.28 74.08 279.47 72.22 279.47 70C279.47 67.78 280.28 65.92 281.9 64.42C283.52 62.92 285.62 62.17 288.2 62.17C290.78 62.17 292.88 62.89 294.5 64.33C296.12 65.77 296.93 67.57 296.93 69.73C296.93 72.07 296.12 74.02 294.5 75.58C292.88 77.08 290.78 77.83 288.2 77.83ZM330.481 83.86C336.481 83.86 341.311 85.66 344.971 89.26C348.691 92.86 350.551 98.2 350.551 105.28V133H336.511V107.44C336.511 103.6 335.671 100.75 333.991 98.89C332.311 96.97 329.881 96.01 326.701 96.01C323.161 96.01 320.341 97.12 318.241 99.34C316.141 101.5 315.091 104.74 315.091 109.06V133H301.051V84.58H314.461V90.25C316.321 88.21 318.631 86.65 321.391 85.57C324.151 84.43 327.181 83.86 330.481 83.86ZM387.307 130.66C385.927 131.68 384.217 132.46 382.177 133C380.197 133.48 378.097 133.72 375.877 133.72C370.117 133.72 365.647 132.25 362.467 129.31C359.347 126.37 357.787 122.05 357.787 116.35V96.46H350.317V85.66H357.787V73.87H371.827V85.66H383.887V96.46H371.827V116.17C371.827 118.21 372.337 119.8 373.357 120.94C374.437 122.02 375.937 122.56 377.857 122.56C380.077 122.56 381.967 121.96 383.527 120.76L387.307 130.66ZM393.299 133.72C390.839 133.72 388.769 132.88 387.089 131.2C385.409 129.52 384.569 127.42 384.569 124.9C384.569 122.32 385.409 120.25 387.089 118.69C388.769 117.07 390.839 116.26 393.299 116.26C395.759 116.26 397.829 117.07 399.509 118.69C401.189 120.25 402.029 122.32 402.029 124.9C402.029 127.42 401.189 129.52 399.509 131.2C397.829 132.88 395.759 133.72 393.299 133.72Z" fill="black"/>
</svg>
